<svg xmlns="http://www.w3.org/2000/svg" version="1.1" xmlns:xlink="http://www.w3.org/1999/xlink" xmlns:svgjs="http://svgjs.dev/svgjs" width="1500" height="352" viewBox="0 0 1500 352"><g transform="matrix(1,0,0,1,-0.9090909090909918,0.46311664287748044)"><svg viewBox="0 0 396 93" data-background-color="#ffffff" preserveAspectRatio="xMidYMid meet" height="352" width="1500" xmlns="http://www.w3.org/2000/svg" xmlns:xlink="http://www.w3.org/1999/xlink"><g id="tight-bounds" transform="matrix(1,0,0,1,0.2400000000000091,-0.12235752212387752)"><svg viewBox="0 0 395.52 93.24471504424778" height="93.24471504424778" width="395.52"><g><svg viewBox="0 0 395.52 93.24471504424778" height="93.24471504424778" width="395.52"><g><svg viewBox="0 0 395.52 93.24471504424778" height="93.24471504424778" width="395.52"><g id="textblocktransform"><svg viewBox="0 0 395.52 93.24471504424778" height="93.24471504424778" width="395.52" id="textblock"><g><svg viewBox="0 0 395.52 93.24471504424778" height="93.24471504424778" width="395.52"><g transform="matrix(1,0,0,1,0,0)"><svg width="395.52" viewBox="1.75 -32.7 141.24 33.300000000000004" height="93.24471504424778" data-palette-color="#ffffff"><path d="M4.8-1.6L4.8-1.6 4.8-30Q4.8-30.6 4.1-30.6L4.1-30.6 1.75-30.6 1.75-31.5 11.95-31.5 11.95-30.6 9.6-30.6Q8.9-30.6 8.9-30L8.9-30 8.9-1.6Q8.9-0.9 9.6-0.9L9.6-0.9 11.95-0.9 11.95 0 1.75 0 1.75-0.9 4.1-0.9Q4.8-0.9 4.8-1.6ZM20.6-8.75L20.6-8.75 21.75-4.15Q22.5-1.05 24.15-1.05L24.15-1.05Q25-1.05 25.48-1.68 25.95-2.3 25.95-3.18 25.95-4.05 25.8-4.8L25.8-4.8 26.75-4.95Q26.95-4.2 26.95-3.3L26.95-3.3Q26.95-1.5 25.88-0.45 24.8 0.6 23.1 0.6L23.1 0.6Q18.9 0.6 17.6-4.75L17.6-4.75 16.45-9.35Q15.6-12.6 14.1-13.88 12.6-15.15 9.85-15.15L9.85-15.15 9.85-16.25 21.65-30.6 19.15-30.6 19.15-31.5 25.95-31.5 25.95-30.6 24.6-30.6Q23.8-30.6 23.2-29.9L23.2-29.9 12-16.35Q15.85-16.3 17.8-14.25 19.75-12.2 20.6-8.75ZM62.95-1.6L62.95-1.6 62.95-15.05 48.35-15.05 48.35-1.6Q48.35-0.9 49.05-0.9L49.05-0.9 51.4-0.9 51.4 0 41.2 0 41.2-0.9 43.55-0.9Q44.25-0.9 44.25-1.6L44.25-1.6 44.25-30Q44.25-30.6 43.55-30.6L43.55-30.6 41.2-30.6 41.2-31.5 51.4-31.5 51.4-30.6 49.05-30.6Q48.35-30.6 48.35-29.9L48.35-29.9 48.35-16.45 62.95-16.45 62.95-29.9Q62.95-30.6 62.25-30.6L62.25-30.6 59.9-30.6 59.9-31.5 70.1-31.5 70.1-30.6 67.75-30.6Q67.05-30.6 67.05-30L67.05-30 67.05-1.6Q67.05-0.9 67.75-0.9L67.75-0.9 70.1-0.9 70.1 0 59.9 0 59.9-0.9 62.25-0.9Q62.95-0.9 62.95-1.6ZM76.64-2.45Q73.84-5.5 73.84-10.8 73.84-16.1 76.64-19.15 79.44-22.2 83.94-22.2 88.44-22.2 91.27-19.15 94.09-16.1 94.09-10.8 94.09-5.5 91.27-2.45 88.44 0.6 83.94 0.6 79.44 0.6 76.64-2.45ZM79.44-18.32Q77.64-15.55 77.64-10.8 77.64-6.05 79.44-3.28 81.24-0.5 83.94-0.5 86.64-0.5 88.47-3.28 90.29-6.05 90.29-10.8 90.29-15.55 88.47-18.32 86.64-21.1 83.94-21.1 81.24-21.1 79.44-18.32ZM102.99-26.9L102.99-26.9 103.74-26.9 103.74-21.6 108.74-21.6 108.74-20.7 103.74-20.7 103.74-3.75Q103.74-1.05 105.24-1.05L105.24-1.05Q105.94-1.05 106.47-1.7 106.99-2.35 106.99-3.2 106.99-4.05 106.84-4.8L106.84-4.8 107.79-4.95Q107.99-4.2 107.99-3.3L107.99-3.3Q107.99-1.5 106.92-0.45 105.84 0.6 104.09 0.6 102.34 0.6 101.24-0.83 100.14-2.25 100.14-5.1L100.14-5.1 100.14-20Q100.14-20.7 99.44-20.7L99.44-20.7 97.09-20.7 97.09-21.6 99.54-21.6Q101.14-21.6 102.99-26.9ZM121.84-22.2L121.84-22.2Q125.29-22.2 127.29-19.9 129.29-17.6 129.29-13.15L129.29-13.15Q129.29-12.25 129.19-11.15L129.19-11.15 115.54-11.15 115.54-10.8Q115.54-6.05 117.26-3.33 118.99-0.6 121.71-0.6 124.44-0.6 126.19-2 127.94-3.4 128.59-6L128.59-6 129.54-5.8Q128.94-2.75 126.79-1.07 124.64 0.6 121.84 0.6L121.84 0.6Q117.49 0.6 114.61-2.45 111.74-5.5 111.74-10.78 111.74-16.05 114.64-19.13 117.54-22.2 121.84-22.2ZM125.84-14.85L125.84-14.85Q125.84-21 121.24-21L121.24-21Q118.94-21 117.31-18.5 115.69-16 115.59-12.15L115.59-12.15 125.64-12.15Q125.84-13.85 125.84-14.85ZM136.34-1.6L136.34-1.6 136.34-30.8Q136.34-31.5 135.64-31.5L135.64-31.5 133.29-31.5 133.29-32.4 135.74-32.4Q138.74-32.4 139.94-32.7L139.94-32.7 139.94-1.6Q139.94-0.9 140.64-0.9L140.64-0.9 142.99-0.9 142.99 0 133.29 0 133.29-0.9 135.64-0.9Q136.34-0.9 136.34-1.6Z" opacity="1" transform="matrix(1,0,0,1,0,0)" fill="#ffffff" class="wordmark-text-0" data-fill-palette-color="primary" id="text-0"></path></svg></g></svg></g></svg></g></svg></g><g></g></svg></g><defs></defs></svg><rect width="395.52" height="93.24471504424778" fill="none" stroke="none" visibility="hidden"></rect></g></svg></g></svg>